<svg xmlns="http://www.w3.org/2000/svg" viewBox="0 0 1000 1000">
  <defs>
    <filter id="soften" x="-50%" y="-50%" width="200%" height="200%">
      <feGaussianBlur stdDeviation="4" />
    </filter>
  </defs>

  <g fill="none" stroke="#ffffff" stroke-linecap="round" filter="url(#soften)">
    <path d="M-40,120 C100,180 160,140 260,260 C360,380 320,420 460,540 C560,620 600,600 700,720 C780,820 820,860 1040,980" stroke-width="3" opacity="0.09" />
    <path d="M1040,60 C900,140 860,120 760,240 C660,360 700,400 580,500 C480,590 500,650 380,760 C300,830 260,860 -40,960" stroke-width="3" opacity="0.08" />
  </g>

  <g fill="none" stroke="#ffffff" stroke-linecap="round">
    <path d="M-40,120 C100,180 160,140 260,260 C360,380 320,420 460,540 C560,620 600,600 700,720 C780,820 820,860 1040,980" stroke-width="1.3" opacity="0.17" />
    <path d="M1040,60 C900,140 860,120 760,240 C660,360 700,400 580,500 C480,590 500,650 380,760 C300,830 260,860 -40,960" stroke-width="1.1" opacity="0.15" />

    <path d="M260,260 C300,300 340,290 400,340" stroke-width="0.8" opacity="0.12" />
    <path d="M460,540 C420,580 440,620 380,680" stroke-width="0.8" opacity="0.11" />
    <path d="M700,720 C740,680 780,690 820,640" stroke-width="0.7" opacity="0.1" />
    <path d="M580,500 C620,470 650,490 700,450" stroke-width="0.7" opacity="0.1" />
    <path d="M760,240 C790,270 780,300 820,320" stroke-width="0.6" opacity="0.09" />

    <path d="M120,700 C160,730 150,760 200,800" stroke-width="0.5" opacity="0.08" />
    <path d="M850,300 C880,330 870,360 910,400" stroke-width="0.5" opacity="0.08" />
    <path d="M60,440 C90,460 80,490 120,520" stroke-width="0.5" opacity="0.07" />
    <path d="M900,700 C930,730 920,760 950,790" stroke-width="0.5" opacity="0.07" />
  </g>
</svg>
